<svg width="22" height="22" viewBox="0 0 22 22" fill="none" xmlns="http://www.w3.org/2000/svg">
<path d="M11 0C17.0749 0.000126275 22 4.92495 22 11C22 17.0751 17.0749 21.9999 11 22C4.925 22 0 17.0751 0 11C0 4.92487 4.925 0 11 0ZM10.0635 14.0566C8.27673 14.063 7.93484 14.0755 7.78906 14.1074C7.67764 14.1331 7.50985 14.1852 7.41699 14.2236C7.32412 14.2653 7.16356 14.3454 7.06152 14.4062C6.95944 14.4703 6.7641 14.6364 6.62793 14.7773C6.49174 14.9216 6.32769 15.1339 6.2627 15.2461C6.19771 15.3615 6.11069 15.57 6.06738 15.7109C6.02414 15.8518 5.98133 16.0757 5.96582 16.207C5.95344 16.3384 5.95345 16.5631 5.96582 16.7041C5.98128 16.845 6.02409 17.0757 6.06738 17.2168C6.11068 17.3577 6.19771 17.5662 6.2627 17.6816C6.32769 17.797 6.49808 18.0154 6.64355 18.166C6.87252 18.4063 6.94983 18.4644 7.23145 18.6055C7.4326 18.7048 7.64948 18.7876 7.79492 18.8164C7.92802 18.8452 8.14168 18.8682 8.26855 18.8682C8.39548 18.8681 8.60934 18.8452 8.73926 18.8164C8.87222 18.7876 9.04816 18.7364 9.13477 18.7012C9.21833 18.6659 9.38613 18.576 9.50684 18.499C9.62756 18.422 9.82525 18.2492 9.95508 18.1084C10.1036 17.9449 10.2338 17.765 10.3174 17.6016C10.3886 17.4605 10.4783 17.2298 10.5186 17.0889C10.5866 16.8421 10.5898 16.7907 10.5898 15.6914V14.5498C10.429 14.2807 10.3603 14.2167 10.2334 14.1494L10.0635 14.0566ZM13.3594 8.93457C13.2108 8.93463 12.9941 8.96309 12.8643 8.99512C12.7374 9.0272 12.5367 9.10713 12.416 9.16797C12.2953 9.22887 12.1186 9.3476 12.0195 9.42773C11.9236 9.50784 11.7817 9.65552 11.7012 9.75488C11.6238 9.85746 11.5085 10.0562 11.4404 10.1973C11.3755 10.3383 11.3013 10.5596 11.2734 10.6846C11.2456 10.8128 11.2246 11.0305 11.2246 11.165C11.2246 11.3029 11.2457 11.5146 11.2705 11.6396C11.2953 11.7647 11.3824 12.0023 11.4629 12.1689C11.5804 12.4186 11.6514 12.5213 11.8555 12.7295C11.9947 12.8705 12.1835 13.0344 12.2764 13.0889C12.3692 13.1466 12.5518 13.2332 12.6787 13.2812C12.8612 13.3485 12.9852 13.3671 13.2666 13.3799C13.5388 13.3927 13.6815 13.3805 13.8701 13.3389C14.0063 13.3068 14.2237 13.2265 14.3506 13.1592C14.4774 13.0919 14.6534 12.9731 14.7432 12.8994C14.8329 12.8225 14.9695 12.6811 15.0469 12.585C15.1242 12.4888 15.2417 12.3002 15.3066 12.1689C15.3716 12.0375 15.4495 11.8129 15.4805 11.6719C15.5207 11.4764 15.5329 11.3288 15.5205 11.0469C15.5081 10.7552 15.4888 10.6266 15.4238 10.4375C15.3774 10.3061 15.294 10.1166 15.2383 10.0205C15.1854 9.9242 15.0276 9.72901 14.8916 9.58496C14.6906 9.37357 14.5918 9.29945 14.3506 9.17773C14.1898 9.09447 13.9606 9.00523 13.8398 8.97949C13.7191 8.95385 13.5048 8.93457 13.3594 8.93457ZM8.94043 8.93457C8.33378 8.93778 7.77269 8.94979 7.69531 8.96582C7.61789 8.98188 7.48482 9.01807 7.40137 9.04688C7.31474 9.07578 7.16349 9.14556 7.06152 9.20312C6.95942 9.2608 6.80429 9.36991 6.7207 9.44043C6.63404 9.51416 6.5069 9.64923 6.43262 9.74219C6.35833 9.83523 6.24365 10.0181 6.17871 10.1494C6.11379 10.2808 6.03681 10.4824 6.00586 10.5977C5.97182 10.7322 5.95021 10.9247 5.9502 11.1426C5.9502 11.3282 5.96553 11.5589 5.99023 11.6553C6.0119 11.7514 6.0771 11.9316 6.13281 12.0566C6.18854 12.1816 6.29655 12.3706 6.37695 12.4795C6.45425 12.5916 6.61207 12.7612 6.72656 12.8574C6.84418 12.9568 7.03359 13.0856 7.1543 13.1465C7.2719 13.2073 7.48208 13.287 7.61816 13.3223C7.8503 13.3832 7.94357 13.3863 9.01758 13.3799L10.166 13.3701C10.3729 13.2197 10.4627 13.1142 10.5029 13.0342L10.5742 12.8896C10.5742 9.53918 10.5712 9.43756 10.5156 9.32227C10.4817 9.25829 10.4167 9.16536 10.3672 9.11719C10.3208 9.06911 10.2271 9.00807 10.1621 8.98242C10.0661 8.93769 9.87683 8.93137 8.94043 8.93457ZM8.94043 3.80566C8.33378 3.80887 7.77269 3.82186 7.69531 3.83789C7.61786 3.85396 7.48476 3.88918 7.40137 3.91797C7.31464 3.9469 7.16351 4.01759 7.06152 4.0752C6.95945 4.13286 6.80431 4.241 6.7207 4.31152C6.63404 4.38525 6.5069 4.52032 6.43262 4.61328C6.35833 4.7063 6.24367 4.88917 6.17871 5.02051C6.11381 5.15181 6.03685 5.35339 6.00586 5.46875C5.97183 5.60331 5.95022 5.79584 5.9502 6.01367C5.9502 6.19959 5.96547 6.43118 5.99023 6.52734C6.01199 6.62361 6.07718 6.8061 6.13281 6.92773C6.18851 7.04948 6.29653 7.24161 6.37695 7.35059C6.45423 7.46263 6.61208 7.63228 6.72656 7.72852C6.84418 7.82789 7.03668 7.95667 7.1543 8.01758C7.27187 8.07843 7.48205 8.15808 7.61816 8.19336C7.8503 8.25426 7.94357 8.25739 9.01758 8.25098L10.166 8.24219C10.3733 8.09159 10.4627 7.9854 10.5029 7.90527L10.5742 7.76074C10.5742 4.40928 10.5713 4.3087 10.5156 4.19336C10.4816 4.12935 10.4167 4.03643 10.3672 3.98828C10.3208 3.9402 10.2271 3.87916 10.1621 3.85352C10.0661 3.8088 9.87665 3.80247 8.94043 3.80566ZM12.8027 3.80273C11.7566 3.80273 11.7317 3.80225 11.5986 3.87598C11.5244 3.91445 11.4281 3.98849 11.3848 4.04297C11.3416 4.09426 11.2894 4.18681 11.2646 4.24121C11.2337 4.32455 11.2246 4.69038 11.2246 6.03027C11.2246 7.47895 11.2301 7.72919 11.2734 7.83496C11.2982 7.89896 11.357 7.99483 11.4033 8.04297C11.4497 8.09421 11.5395 8.16198 11.6045 8.19727C11.7128 8.25496 11.7906 8.25766 12.9512 8.24805L14.1797 8.24219C14.5385 8.10443 14.7215 8.01766 14.8145 7.95996C14.9073 7.90547 15.0961 7.74163 15.2354 7.60059C15.4396 7.39226 15.5113 7.29 15.6289 7.04004C15.7094 6.87335 15.7956 6.63255 15.8203 6.51074C15.8451 6.38898 15.8672 6.17128 15.8672 6.03027C15.8672 5.87331 15.8418 5.6746 15.8047 5.51758C15.7675 5.37654 15.6815 5.14495 15.6104 5.00391C15.5207 4.82138 15.415 4.67753 15.248 4.50781C15.1181 4.37639 14.9386 4.21856 14.8457 4.16406C14.7528 4.10636 14.585 4.02046 14.4736 3.97559C14.3622 3.92753 14.1826 3.8691 14.0713 3.84668C13.9255 3.8147 13.5818 3.80273 12.8027 3.80273Z" fill="white"/>
</svg>
