<svg width="22" height="22" viewBox="0 0 22 22" fill="none" xmlns="http://www.w3.org/2000/svg">
<path d="M8.63902 0.245521C8.97707 0.169137 9.44927 0.0872963 9.68537 0.0600162C9.92146 0.0327361 10.4688 0.00545602 10.9088 0C11.3434 0 11.9337 0.0218241 12.2234 0.0545602C12.5078 0.0818403 13.0229 0.169137 13.361 0.245521C13.699 0.321905 14.2302 0.469218 14.5415 0.572882C14.8527 0.682002 15.4215 0.922067 15.8024 1.11303C16.1834 1.29853 16.7307 1.60953 17.0098 1.79503C17.2888 1.98599 17.6859 2.27516 17.8951 2.43884C18.1044 2.60798 18.5122 2.9899 18.8073 3.28998C19.1024 3.59552 19.4941 4.03745 19.6712 4.27752C19.8537 4.51758 20.1273 4.91042 20.2829 5.15048C20.4332 5.39055 20.7176 5.90341 20.9 6.29625C21.0878 6.68908 21.3239 7.26196 21.4259 7.57841C21.5278 7.89486 21.6727 8.43501 21.7478 8.77874C21.8229 9.12247 21.9141 9.64624 21.941 9.93541C21.9732 10.23 22 10.8138 22 11.2339C22 11.6541 21.9624 12.2815 21.9195 12.6252C21.8766 12.969 21.7585 13.58 21.6566 13.9729C21.5546 14.3712 21.3615 14.9822 21.222 15.326C21.0878 15.6697 20.8624 16.1607 20.7283 16.4172C20.5995 16.6736 20.3634 17.0773 20.2078 17.3174C20.0522 17.5575 19.7732 17.9503 19.58 18.1904C19.3922 18.425 19.0434 18.8178 18.8073 19.0633C18.5712 19.3034 18.1956 19.6471 17.9756 19.8326C17.7556 20.0127 17.3907 20.2855 17.1707 20.4383C16.9507 20.5856 16.5751 20.8202 16.339 20.9566C16.1029 21.093 15.6468 21.3221 15.3195 21.4585C14.9922 21.6004 14.7132 21.7095 14.6917 21.6986C14.6702 21.6877 14.6434 20.9347 14.6327 20.0181C14.6166 18.4577 14.6112 18.3322 14.4932 17.9721C14.4234 17.7593 14.2732 17.3938 14.1498 17.1537C13.9834 16.8209 13.8224 16.6027 13.4576 16.2371C13.1893 15.9698 13.0122 15.7515 13.0551 15.7406C13.0873 15.7297 13.4093 15.6642 13.7634 15.5988C14.1176 15.5387 14.6595 15.3969 14.9707 15.2932C15.282 15.1896 15.722 14.9986 15.9527 14.8731C16.1888 14.7476 16.5376 14.513 16.7307 14.3548C16.9293 14.1966 17.2083 13.9292 17.3478 13.7546C17.4873 13.5855 17.6751 13.3181 17.761 13.1708C17.8468 13.0181 17.981 12.7125 18.0561 12.4888C18.1312 12.2651 18.2171 11.8832 18.2493 11.6431C18.2868 11.4031 18.2976 11.0102 18.2815 10.7702C18.26 10.5301 18.2117 10.1864 18.1634 10.0063C18.1151 9.82629 18.0024 9.50439 17.9059 9.29706C17.8093 9.08973 17.6483 8.78965 17.5463 8.64233C17.4498 8.48957 17.2995 8.28769 17.0634 8.01489L17.1439 7.72572C17.1922 7.57296 17.262 7.2074 17.3049 6.92369C17.3478 6.63998 17.3854 6.23077 17.3854 6.02345C17.3854 5.81612 17.3478 5.49421 17.2995 5.31416C17.2566 5.13411 17.1654 4.91587 17.101 4.82858C16.9829 4.67581 16.9776 4.67035 16.6341 4.70855C16.441 4.73037 16.1029 4.80675 15.8829 4.87768C15.6629 4.94861 15.3302 5.10138 15.1424 5.21595C14.96 5.33053 14.6541 5.56514 14.1122 6.05073L13.6132 5.91433C13.3449 5.83794 12.8459 5.73973 12.5185 5.69608C12.1859 5.65244 11.719 5.61424 11.4829 5.61424C11.2468 5.61424 10.8176 5.64152 10.5332 5.67426C10.2434 5.707 9.72829 5.80521 8.77317 6.04527L8.47805 5.76701C8.31707 5.61424 8.07561 5.41237 7.94146 5.32508C7.80732 5.23232 7.55512 5.09047 7.37805 5.00863C7.20098 4.92679 6.86293 4.81767 6.62683 4.76856C6.39073 4.71946 6.1278 4.68672 6.03659 4.69763C5.90244 4.70855 5.85415 4.76311 5.72537 5.01408C5.60732 5.24869 5.56976 5.41783 5.54293 5.80521C5.52146 6.14348 5.54293 6.4763 5.60195 6.86913C5.65024 7.18558 5.72537 7.56204 5.83805 7.98761L5.58585 8.31497C5.45171 8.49502 5.23707 8.83875 5.11366 9.07882C4.99561 9.31888 4.83463 9.7008 4.76488 9.9245C4.66293 10.2737 4.64146 10.4428 4.64683 11.0703C4.64683 11.594 4.67366 11.9105 4.74341 12.1615C4.79171 12.3579 4.93122 12.7125 5.0439 12.9526C5.15659 13.1927 5.38195 13.5473 5.53756 13.7437C5.69854 13.9401 5.99366 14.2293 6.19756 14.3821C6.40683 14.5403 6.75561 14.7694 6.97561 14.884C7.19561 15.0041 7.63024 15.1841 7.94146 15.2932C8.25268 15.3969 8.79463 15.5387 9.14878 15.5988C9.50293 15.6642 9.82488 15.7297 9.85707 15.7406C9.9 15.7515 9.72293 15.9698 9.45463 16.2371C9.08439 16.619 8.93951 16.81 8.55854 17.6066L8.20976 17.6502C8.01659 17.6775 7.53366 17.6993 7.13659 17.6993C6.70195 17.6993 6.33171 17.672 6.20829 17.6284C6.09024 17.5902 5.9078 17.4484 5.75219 17.2792C5.61268 17.1264 5.32829 16.8155 5.12439 16.5972C4.8722 16.3244 4.64146 16.1389 4.42683 16.0298C4.24976 15.9425 4.05122 15.8716 3.98683 15.8716C3.92244 15.8716 3.83122 15.9098 3.78829 15.9534C3.74 15.9971 3.70244 16.0516 3.70244 16.0734C3.70244 16.1007 3.82585 16.2317 3.98146 16.3681C4.13707 16.5099 4.34634 16.7554 4.44293 16.9137C4.53415 17.0773 4.71659 17.492 4.84537 17.8357C4.97415 18.1795 5.11902 18.5396 5.16195 18.6269C5.21024 18.7141 5.34439 18.8778 5.45707 18.9869C5.56976 19.0961 5.74683 19.2325 5.84878 19.2816C5.95073 19.3361 6.15463 19.4125 6.30488 19.4507C6.47122 19.4998 6.88439 19.5271 8.26341 19.5271V20.5474C8.26341 21.1148 8.29024 21.6604 8.31171 21.7641C8.33854 21.8677 8.3439 21.9714 8.3278 21.9932C8.30634 22.015 8.11854 21.9823 7.91463 21.9223C7.71073 21.8623 7.31902 21.7259 7.0561 21.6222C6.79317 21.5185 6.35317 21.3221 6.09024 21.1857C5.82732 21.0493 5.46244 20.8475 5.28537 20.7383C5.10829 20.6347 4.70049 20.34 4.37317 20.0945C4.04585 19.8435 3.61122 19.4725 3.39659 19.2707C3.18195 19.0633 2.82244 18.676 2.59707 18.4086C2.37171 18.1413 2.02293 17.6611 1.81366 17.3447C1.60976 17.0282 1.32537 16.5372 1.18585 16.2535C1.04098 15.9698 0.837073 15.5006 0.72439 15.2168C0.617073 14.9331 0.445366 14.3712 0.343415 13.9729C0.241463 13.58 0.123415 12.969 0.0804878 12.6252C0.037561 12.2815 0 11.6541 0 11.2339C0 10.8138 0.0268293 10.23 0.0590244 9.93541C0.0858537 9.64624 0.177073 9.12247 0.252195 8.77874C0.327317 8.43501 0.456098 7.94396 0.536585 7.68753C0.617073 7.4311 0.778049 7.00007 0.896098 6.73273C1.00878 6.46538 1.22878 6.00708 1.38439 5.72336C1.54 5.43965 1.82439 4.98135 2.0122 4.714C2.2 4.44666 2.53268 4.01563 2.74732 3.76465C2.96195 3.50822 3.35902 3.10448 3.62732 2.86441C3.89561 2.61889 4.34098 2.25879 4.62 2.05692C4.89902 1.85505 5.35512 1.56042 5.63415 1.4022C5.91317 1.24397 6.3639 1.02028 6.62683 0.905699C6.88976 0.785667 7.31366 0.621986 7.56585 0.540146C7.81805 0.458306 8.30098 0.327361 8.63902 0.245521Z" fill="white"/>
</svg>
