<svg width="22" height="22" viewBox="0 0 22 22" fill="none" xmlns="http://www.w3.org/2000/svg">
<path fill-rule="evenodd" clip-rule="evenodd" d="M11.3489 0.00421022C11.7551 0.0206906 12.3371 0.0701317 12.6391 0.114079C12.941 0.158027 13.4242 0.251416 13.7097 0.328324C13.9952 0.399739 14.4564 0.537075 14.7254 0.630464C14.9944 0.729346 15.4446 0.91063 15.7136 1.03698C15.9827 1.16882 16.4054 1.38856 16.647 1.53688C16.8885 1.68521 17.3168 1.97087 17.5968 2.17962C17.8713 2.38288 18.316 2.75643 18.5796 3.00913C18.8376 3.25633 19.2384 3.67933 19.4635 3.954C19.6941 4.22868 20.0235 4.66815 20.2047 4.94283C20.3804 5.2175 20.6714 5.7229 20.847 6.06898C21.0227 6.41507 21.2533 6.95892 21.3686 7.27754C21.4784 7.59616 21.6267 8.10156 21.7035 8.4037C21.7749 8.70584 21.8737 9.23321 21.9176 9.57381C21.9616 9.90891 22 10.5626 22 11.0131C22 11.469 21.9616 12.1173 21.9176 12.4579C21.8737 12.793 21.7639 13.3588 21.6761 13.7049C21.5937 14.051 21.429 14.5838 21.3137 14.886C21.1984 15.1881 20.9953 15.6606 20.858 15.9297C20.7263 16.1989 20.4902 16.6219 20.3419 16.8636C20.1882 17.1053 19.9027 17.5118 19.7051 17.77C19.5019 18.0282 19.1505 18.4293 18.9254 18.671C18.7003 18.9072 18.2556 19.3137 17.9372 19.5664C17.6188 19.8246 17.1356 20.1707 16.8666 20.341C16.5976 20.5058 16.076 20.7859 15.7136 20.9617C15.3513 21.132 14.7693 21.3683 14.4234 21.4781C14.0775 21.588 13.5669 21.7253 13.2979 21.7803C13.0289 21.8407 12.5951 21.9121 12.3371 21.9451C12.0791 21.9725 11.4806 22 11.003 22C10.5308 22 9.86099 21.9615 9.52608 21.9176C9.18568 21.8737 8.62019 21.7638 8.2743 21.6759C7.92841 21.588 7.44527 21.4397 7.20369 21.3518C6.96212 21.2584 6.56682 21.0991 6.32525 20.9837C6.08368 20.8738 5.66641 20.6541 5.3919 20.4893C5.11739 20.33 4.68914 20.0388 4.4311 19.8521C4.17306 19.6598 3.6954 19.2423 3.36599 18.9237C3.04206 18.605 2.6248 18.1601 2.43813 17.9348C2.25695 17.7096 1.96048 17.2976 1.7793 17.0284C1.60361 16.7592 1.29615 16.2099 1.10948 15.8199C0.917322 15.4298 0.670259 14.842 0.565944 14.5124C0.456138 14.1883 0.307901 13.6225 0.231037 13.2544C0.159663 12.8809 0.0663283 12.2711 0.0333866 11.892C0.000444914 11.4965 -0.0105356 10.9142 0.0114255 10.5187C0.0333866 10.1396 0.0827991 9.60677 0.121231 9.33759C0.165153 9.06841 0.263978 8.58499 0.340842 8.26636C0.423197 7.94774 0.576924 7.45333 0.68124 7.16767C0.791045 6.88201 0.994186 6.40408 1.14242 6.10744C1.29066 5.81628 1.51576 5.40977 1.63655 5.20651C1.76283 4.99776 1.99891 4.65167 2.15813 4.43743C2.32283 4.21769 2.65225 3.82216 2.88833 3.55298C3.12441 3.2893 3.56364 2.87179 3.8656 2.61909C4.16208 2.3664 4.62326 2.01481 4.89778 1.83353C5.1668 1.65225 5.73779 1.33363 6.16054 1.12487C6.58329 0.916124 7.19271 0.657931 7.51664 0.548062C7.84606 0.443687 8.41155 0.295363 8.7794 0.218455C9.15274 0.141547 9.71275 0.0591448 10.0312 0.0316775C10.3496 0.00421022 10.9426 -0.00677669 11.3489 0.00421022V0.00421022ZM5.89701 6.16787C5.76524 6.29971 5.66092 6.47001 5.60602 6.6458C5.5621 6.80511 5.54014 7.01386 5.55661 7.14021C5.57308 7.26106 5.65543 7.46981 5.73779 7.60715C5.84759 7.78843 5.97387 7.8983 6.18799 8.00817C6.41309 8.11804 6.57231 8.1565 6.79192 8.1565C6.95663 8.1565 7.18722 8.12903 7.29703 8.10156C7.41232 8.0686 7.5935 7.96422 7.70331 7.87084C7.81311 7.77195 7.95037 7.59616 8.00527 7.48629C8.07116 7.35995 8.10959 7.16218 8.10959 6.99188C8.10959 6.83257 8.06018 6.60185 8.01076 6.48099C7.95586 6.36014 7.82409 6.18984 7.71429 6.09645C7.60448 6.00856 7.4233 5.89869 7.30801 5.86573C7.18722 5.82727 6.96761 5.7998 6.81937 5.7998C6.66565 5.7998 6.44603 5.83826 6.32525 5.88221C6.20446 5.92615 6.0123 6.0525 5.89701 6.16787V6.16787ZM12.5951 9.31561C12.4689 9.38154 12.2163 9.59029 12.0351 9.78256C11.854 9.97483 11.6838 10.1122 11.6618 10.0902C11.6398 10.0682 11.6234 9.85947 11.6234 9.62874V9.20025H9.3449V16.2319H11.6234C11.6508 11.8811 11.6563 11.8041 11.7661 11.5899C11.832 11.469 11.9583 11.2988 12.0406 11.2109C12.1285 11.123 12.2987 11.0076 12.4195 10.9527C12.5512 10.8922 12.7653 10.8483 12.952 10.8483C13.1277 10.8483 13.3528 10.8812 13.4461 10.9197C13.545 10.9637 13.7097 11.0845 13.803 11.1944C13.9018 11.3097 14.0226 11.5295 14.0665 11.6888C14.1324 11.9195 14.1489 12.37 14.1489 14.1059V16.2319H16.4548C16.4548 12.1228 16.4383 11.5899 16.3725 11.2438C16.323 11.0131 16.2023 10.645 16.0979 10.4363C15.9936 10.2165 15.796 9.93637 15.6423 9.77706C15.494 9.62874 15.2524 9.43647 15.1042 9.35407C14.956 9.27167 14.676 9.16729 14.4783 9.12334C14.2807 9.0739 13.9622 9.04094 13.7646 9.04094C13.5669 9.04094 13.2759 9.0794 13.1167 9.12334C12.963 9.16729 12.7269 9.25519 12.5951 9.31561V9.31561ZM5.69387 16.2319H7.99978V9.20025H5.69387V16.2319Z" fill="white"/>
</svg>
