<svg width="147" height="161" viewBox="0 0 147 161" fill="none" xmlns="http://www.w3.org/2000/svg">
<path d="M137 141C142.523 141 147 145.477 147 151C147 156.523 142.523 161 137 161H10C4.47715 161 0 156.523 0 151C0 145.477 4.47715 141 10 141H137ZM78 0C85.1797 0 91 5.8203 91 13V64H126.347C132.697 64.0002 135.765 71.7762 131.127 76.1133L78.2812 125.529C75.5905 128.045 71.4095 128.045 68.7188 125.529L15.873 76.1133C11.2349 71.7762 14.3034 64.0002 20.6533 64H56V13C56 5.8203 61.8203 1.44958e-07 69 0H78Z" fill="black"/>
</svg>
